# xmcd CD database file generated by Grip 3.3.1
# 
# Track frame offsets:
#       150
#       10784
#       23263
#       35788
#       47455
#       58310
#       71898
#       83133
#       95162
#       108311
#       122843
#       134810
#       146001
#       158118
#       170226
#       180393
# 
# Disc length: 2545 seconds
# 
# Revision: 1
# Processed by: cddbd v1.5.2PL0 Copyright (c) Steve Scherf et al.
# Submitted via: Grip 3.3.1
# 
DISCID=e409ef10
DTITLE=The Louvin Brothers - Nearer My God To Thee
DYEAR=2008
DGENRE=Rock
TTITLE0=Are You Washed In The Blood
TTITLE1=Nearer My God To Thee
TTITLE2=Wait A Little Longer Please Jesus
TTITLE3=I Can't Say No
TTITLE4=I Won't Have To Cross Jordan Alone
TTITLE5=There's No Excuse
TTITLE6=This Little Light Of Mine
TTITLE7=Praying
TTITLE8=Thankful
TTITLE9=Lord, I'm Coming Home
TTITLE10=Last Chance To Pray
TTITLE11=I Steal Away And Pray
TTITLE12=Hoping That You're Hoping
TTITLE13=Cash On The Barrelhead
TTITLE14=You're Running Wild
TTITLE15=The New Partner Waltz
EXTD=
EXTT0=
EXTT1=
EXTT2=
EXTT3=
EXTT4=
EXTT5=
EXTT6=
EXTT7=
EXTT8=
EXTT9=
EXTT10=
EXTT11=
EXTT12=
EXTT13=
EXTT14=
EXTT15=
PLAYORDER=
